<mxfile host="app.diagrams.net" modified="2021-04-13T07:46:18.958Z" agent="5.0 (Windows NT 10.0; Win64; x64) AppleWebKit/537.36 (KHTML, like Gecko) Chrome/89.0.4389.90 Safari/537.36" etag="SFuIq-nrANlgzy8uLvVs" version="14.5.10" type="github">
  <diagram id="qdSIgpuCEHY31d6F6nsB" name="Page-1">
    <mxGraphModel dx="2249" dy="1931" grid="1" gridSize="10" guides="1" tooltips="1" connect="1" arrows="1" fold="1" page="1" pageScale="1" pageWidth="827" pageHeight="1169" math="0" shadow="0">
      <root>
        <mxCell id="0" />
        <mxCell id="1" parent="0" />
        <mxCell id="QQxCpzfc86TUOospv0HA-32" style="edgeStyle=orthogonalEdgeStyle;rounded=0;orthogonalLoop=1;jettySize=auto;html=1;entryX=0.149;entryY=-0.017;entryDx=0;entryDy=0;entryPerimeter=0;" parent="1" source="QQxCpzfc86TUOospv0HA-7" target="QQxCpzfc86TUOospv0HA-9" edge="1">
          <mxGeometry relative="1" as="geometry" />
        </mxCell>
        <mxCell id="QQxCpzfc86TUOospv0HA-7" value="api_code接口调用-定时任务" style="rounded=1;whiteSpace=wrap;html=1;" parent="1" vertex="1">
          <mxGeometry x="70" y="-169" width="210" height="60" as="geometry" />
        </mxCell>
        <mxCell id="QQxCpzfc86TUOospv0HA-41" style="edgeStyle=orthogonalEdgeStyle;rounded=0;orthogonalLoop=1;jettySize=auto;html=1;exitX=0.5;exitY=1;exitDx=0;exitDy=0;entryX=0.158;entryY=0.009;entryDx=0;entryDy=0;entryPerimeter=0;" parent="1" source="QQxCpzfc86TUOospv0HA-9" target="QQxCpzfc86TUOospv0HA-13" edge="1">
          <mxGeometry relative="1" as="geometry">
            <Array as="points">
              <mxPoint x="177" y="135" />
            </Array>
          </mxGeometry>
        </mxCell>
        <mxCell id="QQxCpzfc86TUOospv0HA-9" value="" style="rounded=1;whiteSpace=wrap;html=1;" parent="1" vertex="1">
          <mxGeometry x="70" y="-45" width="700" height="180" as="geometry" />
        </mxCell>
        <mxCell id="QQxCpzfc86TUOospv0HA-10" value="权限配置" style="rounded=0;whiteSpace=wrap;html=1;" parent="1" vertex="1">
          <mxGeometry x="100" y="-15" width="620" height="40" as="geometry" />
        </mxCell>
        <mxCell id="QQxCpzfc86TUOospv0HA-11" value="参数映射" style="rounded=0;whiteSpace=wrap;html=1;" parent="1" vertex="1">
          <mxGeometry x="100.25" y="60" width="620" height="40" as="geometry" />
        </mxCell>
        <mxCell id="QQxCpzfc86TUOospv0HA-14" style="edgeStyle=orthogonalEdgeStyle;rounded=0;orthogonalLoop=1;jettySize=auto;html=1;entryX=0;entryY=0.5;entryDx=0;entryDy=0;" parent="1" source="QQxCpzfc86TUOospv0HA-13" target="QQxCpzfc86TUOospv0HA-16" edge="1">
          <mxGeometry relative="1" as="geometry">
            <mxPoint x="175" y="510" as="targetPoint" />
            <Array as="points">
              <mxPoint x="170" y="660" />
            </Array>
          </mxGeometry>
        </mxCell>
        <mxCell id="QQxCpzfc86TUOospv0HA-21" value="reques1t" style="edgeLabel;html=1;align=center;verticalAlign=middle;resizable=0;points=[];" parent="QQxCpzfc86TUOospv0HA-14" vertex="1" connectable="0">
          <mxGeometry x="0.0603" y="-2" relative="1" as="geometry">
            <mxPoint x="7" y="-31" as="offset" />
          </mxGeometry>
        </mxCell>
        <mxCell id="QQxCpzfc86TUOospv0HA-42" style="edgeStyle=orthogonalEdgeStyle;rounded=0;orthogonalLoop=1;jettySize=auto;html=1;exitX=0.75;exitY=0;exitDx=0;exitDy=0;entryX=0.779;entryY=1;entryDx=0;entryDy=0;entryPerimeter=0;dashed=1;" parent="1" source="QQxCpzfc86TUOospv0HA-13" target="QQxCpzfc86TUOospv0HA-9" edge="1">
          <mxGeometry relative="1" as="geometry">
            <mxPoint x="615" y="200" as="targetPoint" />
          </mxGeometry>
        </mxCell>
        <mxCell id="QQxCpzfc86TUOospv0HA-43" value="需要调用回执接口-api_code" style="edgeLabel;html=1;align=center;verticalAlign=middle;resizable=0;points=[];" parent="QQxCpzfc86TUOospv0HA-42" vertex="1" connectable="0">
          <mxGeometry x="0.2541" y="-2" relative="1" as="geometry">
            <mxPoint as="offset" />
          </mxGeometry>
        </mxCell>
        <mxCell id="QQxCpzfc86TUOospv0HA-13" value="" style="rounded=1;whiteSpace=wrap;html=1;" parent="1" vertex="1">
          <mxGeometry x="60" y="250" width="740" height="230" as="geometry" />
        </mxCell>
        <mxCell id="QQxCpzfc86TUOospv0HA-20" style="edgeStyle=orthogonalEdgeStyle;rounded=0;orthogonalLoop=1;jettySize=auto;html=1;exitX=1;exitY=0.5;exitDx=0;exitDy=0;entryX=0.812;entryY=1.02;entryDx=0;entryDy=0;entryPerimeter=0;" parent="1" source="QQxCpzfc86TUOospv0HA-16" target="QQxCpzfc86TUOospv0HA-13" edge="1">
          <mxGeometry relative="1" as="geometry" />
        </mxCell>
        <mxCell id="QQxCpzfc86TUOospv0HA-22" value="response2" style="edgeLabel;html=1;align=center;verticalAlign=middle;resizable=0;points=[];" parent="QQxCpzfc86TUOospv0HA-20" vertex="1" connectable="0">
          <mxGeometry x="-0.3101" y="-1" relative="1" as="geometry">
            <mxPoint x="12" y="-71" as="offset" />
          </mxGeometry>
        </mxCell>
        <mxCell id="QQxCpzfc86TUOospv0HA-25" style="edgeStyle=orthogonalEdgeStyle;rounded=0;orthogonalLoop=1;jettySize=auto;html=1;exitX=0.25;exitY=1;exitDx=0;exitDy=0;entryX=0.25;entryY=0;entryDx=0;entryDy=0;" parent="1" source="QQxCpzfc86TUOospv0HA-16" target="QQxCpzfc86TUOospv0HA-24" edge="1">
          <mxGeometry relative="1" as="geometry">
            <Array as="points">
              <mxPoint x="343" y="690" />
            </Array>
          </mxGeometry>
        </mxCell>
        <mxCell id="QQxCpzfc86TUOospv0HA-16" value="sop-out" style="rounded=1;whiteSpace=wrap;html=1;" parent="1" vertex="1">
          <mxGeometry x="290" y="630" width="230" height="60" as="geometry" />
        </mxCell>
        <mxCell id="QQxCpzfc86TUOospv0HA-23" value="" style="line;strokeWidth=2;html=1;dashed=1;" parent="1" vertex="1">
          <mxGeometry x="-250" y="550" width="1360" height="10" as="geometry" />
        </mxCell>
        <mxCell id="QQxCpzfc86TUOospv0HA-26" style="edgeStyle=orthogonalEdgeStyle;rounded=0;orthogonalLoop=1;jettySize=auto;html=1;exitX=0.75;exitY=0;exitDx=0;exitDy=0;entryX=0.75;entryY=1;entryDx=0;entryDy=0;" parent="1" source="QQxCpzfc86TUOospv0HA-24" target="QQxCpzfc86TUOospv0HA-16" edge="1">
          <mxGeometry relative="1" as="geometry">
            <Array as="points">
              <mxPoint x="469" y="690" />
            </Array>
          </mxGeometry>
        </mxCell>
        <mxCell id="QQxCpzfc86TUOospv0HA-24" value="供应商" style="rounded=1;whiteSpace=wrap;html=1;" parent="1" vertex="1">
          <mxGeometry x="280" y="790" width="252.5" height="50" as="geometry" />
        </mxCell>
        <mxCell id="QQxCpzfc86TUOospv0HA-27" value="request1" style="edgeLabel;html=1;align=center;verticalAlign=middle;resizable=0;points=[];" parent="1" vertex="1" connectable="0">
          <mxGeometry x="185" y="630" as="geometry">
            <mxPoint x="154" y="118" as="offset" />
          </mxGeometry>
        </mxCell>
        <mxCell id="QQxCpzfc86TUOospv0HA-28" value="response2" style="edgeLabel;html=1;align=center;verticalAlign=middle;resizable=0;points=[];" parent="1" vertex="1" connectable="0">
          <mxGeometry x="713" y="630" as="geometry">
            <mxPoint x="-239" y="119" as="offset" />
          </mxGeometry>
        </mxCell>
        <mxCell id="QQxCpzfc86TUOospv0HA-34" value="" style="rounded=0;whiteSpace=wrap;html=1;dashed=1;" parent="1" vertex="1">
          <mxGeometry x="100" y="270" width="290" height="180" as="geometry" />
        </mxCell>
        <mxCell id="QQxCpzfc86TUOospv0HA-35" value="" style="rounded=0;whiteSpace=wrap;html=1;dashed=1;" parent="1" vertex="1">
          <mxGeometry x="460" y="270" width="290" height="180" as="geometry" />
        </mxCell>
        <mxCell id="QQxCpzfc86TUOospv0HA-36" value="参数校验" style="rounded=1;whiteSpace=wrap;html=1;dashed=1;" parent="1" vertex="1">
          <mxGeometry x="130" y="280" width="210" height="30" as="geometry" />
        </mxCell>
        <mxCell id="QQxCpzfc86TUOospv0HA-37" value="db操作" style="rounded=1;whiteSpace=wrap;html=1;dashed=1;" parent="1" vertex="1">
          <mxGeometry x="130" y="330" width="210" height="30" as="geometry" />
        </mxCell>
        <mxCell id="QQxCpzfc86TUOospv0HA-38" value="参数组装" style="rounded=1;whiteSpace=wrap;html=1;dashed=1;" parent="1" vertex="1">
          <mxGeometry x="130" y="380" width="210" height="30" as="geometry" />
        </mxCell>
        <mxCell id="QQxCpzfc86TUOospv0HA-39" value="响应解析" style="rounded=1;whiteSpace=wrap;html=1;dashed=1;" parent="1" vertex="1">
          <mxGeometry x="503" y="290" width="210" height="30" as="geometry" />
        </mxCell>
        <mxCell id="QQxCpzfc86TUOospv0HA-40" value="db操作" style="rounded=1;whiteSpace=wrap;html=1;dashed=1;" parent="1" vertex="1">
          <mxGeometry x="503" y="340" width="210" height="30" as="geometry" />
        </mxCell>
        <mxCell id="QQxCpzfc86TUOospv0HA-51" value="异步操作" style="rounded=1;whiteSpace=wrap;html=1;dashed=1;" parent="1" vertex="1">
          <mxGeometry x="503" y="390" width="210" height="30" as="geometry" />
        </mxCell>
        <mxCell id="YYS0tg4hP7vyLNwFndsM-16" style="edgeStyle=orthogonalEdgeStyle;rounded=0;orthogonalLoop=1;jettySize=auto;html=1;exitX=0.5;exitY=1;exitDx=0;exitDy=0;" edge="1" parent="1" source="YYS0tg4hP7vyLNwFndsM-6">
          <mxGeometry relative="1" as="geometry">
            <mxPoint x="155" y="1070" as="targetPoint" />
          </mxGeometry>
        </mxCell>
        <mxCell id="YYS0tg4hP7vyLNwFndsM-6" value="定时任务" style="ellipse;whiteSpace=wrap;html=1;aspect=fixed;" vertex="1" parent="1">
          <mxGeometry x="120" y="910" width="70" height="70" as="geometry" />
        </mxCell>
        <mxCell id="YYS0tg4hP7vyLNwFndsM-18" style="edgeStyle=orthogonalEdgeStyle;rounded=0;orthogonalLoop=1;jettySize=auto;html=1;entryX=0.5;entryY=0;entryDx=0;entryDy=0;" edge="1" parent="1" source="YYS0tg4hP7vyLNwFndsM-14" target="YYS0tg4hP7vyLNwFndsM-17">
          <mxGeometry relative="1" as="geometry" />
        </mxCell>
        <mxCell id="YYS0tg4hP7vyLNwFndsM-14" value="查询配置信息" style="rounded=1;whiteSpace=wrap;html=1;" vertex="1" parent="1">
          <mxGeometry x="60" y="1070" width="190" height="40" as="geometry" />
        </mxCell>
        <mxCell id="YYS0tg4hP7vyLNwFndsM-22" style="edgeStyle=orthogonalEdgeStyle;rounded=0;orthogonalLoop=1;jettySize=auto;html=1;entryX=0.134;entryY=0;entryDx=0;entryDy=0;entryPerimeter=0;" edge="1" parent="1" source="YYS0tg4hP7vyLNwFndsM-17" target="YYS0tg4hP7vyLNwFndsM-19">
          <mxGeometry relative="1" as="geometry" />
        </mxCell>
        <mxCell id="YYS0tg4hP7vyLNwFndsM-17" value="组装请求参数" style="rounded=1;whiteSpace=wrap;html=1;" vertex="1" parent="1">
          <mxGeometry x="60" y="1150" width="190" height="40" as="geometry" />
        </mxCell>
        <mxCell id="YYS0tg4hP7vyLNwFndsM-23" style="edgeStyle=orthogonalEdgeStyle;rounded=0;orthogonalLoop=1;jettySize=auto;html=1;entryX=0.141;entryY=0.02;entryDx=0;entryDy=0;entryPerimeter=0;" edge="1" parent="1" source="YYS0tg4hP7vyLNwFndsM-19" target="YYS0tg4hP7vyLNwFndsM-21">
          <mxGeometry relative="1" as="geometry">
            <Array as="points">
              <mxPoint x="160" y="1320" />
              <mxPoint x="160" y="1320" />
            </Array>
          </mxGeometry>
        </mxCell>
        <mxCell id="YYS0tg4hP7vyLNwFndsM-28" style="edgeStyle=orthogonalEdgeStyle;rounded=0;orthogonalLoop=1;jettySize=auto;html=1;exitX=0.75;exitY=0;exitDx=0;exitDy=0;entryX=0.5;entryY=1;entryDx=0;entryDy=0;" edge="1" parent="1" source="YYS0tg4hP7vyLNwFndsM-19" target="YYS0tg4hP7vyLNwFndsM-26">
          <mxGeometry relative="1" as="geometry" />
        </mxCell>
        <mxCell id="YYS0tg4hP7vyLNwFndsM-19" value="sop-out" style="rounded=1;whiteSpace=wrap;html=1;" vertex="1" parent="1">
          <mxGeometry x="60" y="1250" width="710" height="50" as="geometry" />
        </mxCell>
        <mxCell id="YYS0tg4hP7vyLNwFndsM-24" style="edgeStyle=orthogonalEdgeStyle;rounded=0;orthogonalLoop=1;jettySize=auto;html=1;exitX=0.75;exitY=0;exitDx=0;exitDy=0;entryX=0.75;entryY=1;entryDx=0;entryDy=0;" edge="1" parent="1" source="YYS0tg4hP7vyLNwFndsM-21" target="YYS0tg4hP7vyLNwFndsM-19">
          <mxGeometry relative="1" as="geometry" />
        </mxCell>
        <mxCell id="YYS0tg4hP7vyLNwFndsM-21" value="外部供应商平台" style="rounded=1;whiteSpace=wrap;html=1;" vertex="1" parent="1">
          <mxGeometry x="60" y="1360" width="710" height="50" as="geometry" />
        </mxCell>
        <mxCell id="YYS0tg4hP7vyLNwFndsM-30" value="" style="edgeStyle=orthogonalEdgeStyle;rounded=0;orthogonalLoop=1;jettySize=auto;html=1;" edge="1" parent="1" source="YYS0tg4hP7vyLNwFndsM-26" target="YYS0tg4hP7vyLNwFndsM-29">
          <mxGeometry relative="1" as="geometry" />
        </mxCell>
        <mxCell id="YYS0tg4hP7vyLNwFndsM-26" value="解析数据" style="rounded=1;whiteSpace=wrap;html=1;" vertex="1" parent="1">
          <mxGeometry x="498" y="1150" width="190" height="40" as="geometry" />
        </mxCell>
        <mxCell id="YYS0tg4hP7vyLNwFndsM-29" value="DB1" style="shape=cylinder3;whiteSpace=wrap;html=1;boundedLbl=1;backgroundOutline=1;size=15;" vertex="1" parent="1">
          <mxGeometry x="563" y="1030" width="60" height="80" as="geometry" />
        </mxCell>
        <mxCell id="YYS0tg4hP7vyLNwFndsM-31" value="DB1" style="shape=cylinder3;whiteSpace=wrap;html=1;boundedLbl=1;backgroundOutline=1;size=15;" vertex="1" parent="1">
          <mxGeometry x="770" y="1030" width="60" height="80" as="geometry" />
        </mxCell>
        <mxCell id="YYS0tg4hP7vyLNwFndsM-58" value="定时同步数据" style="shape=singleArrow;whiteSpace=wrap;html=1;" vertex="1" parent="1">
          <mxGeometry x="650" y="1040" width="100" height="60" as="geometry" />
        </mxCell>
        <mxCell id="YYS0tg4hP7vyLNwFndsM-59" style="edgeStyle=orthogonalEdgeStyle;rounded=0;orthogonalLoop=1;jettySize=auto;html=1;exitX=0.5;exitY=1;exitDx=0;exitDy=0;" edge="1" parent="1" source="YYS0tg4hP7vyLNwFndsM-60">
          <mxGeometry relative="1" as="geometry">
            <mxPoint x="165" y="1790" as="targetPoint" />
          </mxGeometry>
        </mxCell>
        <mxCell id="YYS0tg4hP7vyLNwFndsM-60" value="定时任务" style="ellipse;whiteSpace=wrap;html=1;aspect=fixed;" vertex="1" parent="1">
          <mxGeometry x="130" y="1630" width="70" height="70" as="geometry" />
        </mxCell>
        <mxCell id="YYS0tg4hP7vyLNwFndsM-61" style="edgeStyle=orthogonalEdgeStyle;rounded=0;orthogonalLoop=1;jettySize=auto;html=1;entryX=0.5;entryY=0;entryDx=0;entryDy=0;" edge="1" parent="1" source="YYS0tg4hP7vyLNwFndsM-62" target="YYS0tg4hP7vyLNwFndsM-64">
          <mxGeometry relative="1" as="geometry">
            <Array as="points">
              <mxPoint x="165" y="1840" />
              <mxPoint x="165" y="1840" />
            </Array>
          </mxGeometry>
        </mxCell>
        <mxCell id="YYS0tg4hP7vyLNwFndsM-81" style="edgeStyle=orthogonalEdgeStyle;rounded=0;orthogonalLoop=1;jettySize=auto;html=1;entryX=0.75;entryY=1;entryDx=0;entryDy=0;dashed=1;" edge="1" parent="1" source="YYS0tg4hP7vyLNwFndsM-62" target="YYS0tg4hP7vyLNwFndsM-79">
          <mxGeometry relative="1" as="geometry">
            <Array as="points">
              <mxPoint x="633" y="1740" />
              <mxPoint x="633" y="1740" />
            </Array>
          </mxGeometry>
        </mxCell>
        <mxCell id="YYS0tg4hP7vyLNwFndsM-62" value="检查配置信息" style="rounded=1;whiteSpace=wrap;html=1;" vertex="1" parent="1">
          <mxGeometry x="70" y="1760" width="620" height="70" as="geometry" />
        </mxCell>
        <mxCell id="YYS0tg4hP7vyLNwFndsM-63" style="edgeStyle=orthogonalEdgeStyle;rounded=0;orthogonalLoop=1;jettySize=auto;html=1;entryX=0.134;entryY=0;entryDx=0;entryDy=0;entryPerimeter=0;" edge="1" parent="1" source="YYS0tg4hP7vyLNwFndsM-64" target="YYS0tg4hP7vyLNwFndsM-67">
          <mxGeometry relative="1" as="geometry" />
        </mxCell>
        <mxCell id="YYS0tg4hP7vyLNwFndsM-64" value="组装请求参数" style="rounded=1;whiteSpace=wrap;html=1;" vertex="1" parent="1">
          <mxGeometry x="70" y="1870" width="190" height="40" as="geometry" />
        </mxCell>
        <mxCell id="YYS0tg4hP7vyLNwFndsM-65" style="edgeStyle=orthogonalEdgeStyle;rounded=0;orthogonalLoop=1;jettySize=auto;html=1;entryX=0.141;entryY=0.02;entryDx=0;entryDy=0;entryPerimeter=0;" edge="1" parent="1" source="YYS0tg4hP7vyLNwFndsM-67" target="YYS0tg4hP7vyLNwFndsM-69">
          <mxGeometry relative="1" as="geometry">
            <Array as="points">
              <mxPoint x="170" y="2040" />
              <mxPoint x="170" y="2040" />
            </Array>
          </mxGeometry>
        </mxCell>
        <mxCell id="YYS0tg4hP7vyLNwFndsM-66" style="edgeStyle=orthogonalEdgeStyle;rounded=0;orthogonalLoop=1;jettySize=auto;html=1;exitX=0.75;exitY=0;exitDx=0;exitDy=0;entryX=0.5;entryY=1;entryDx=0;entryDy=0;" edge="1" parent="1" source="YYS0tg4hP7vyLNwFndsM-67" target="YYS0tg4hP7vyLNwFndsM-71">
          <mxGeometry relative="1" as="geometry" />
        </mxCell>
        <mxCell id="YYS0tg4hP7vyLNwFndsM-67" value="sop-out" style="rounded=1;whiteSpace=wrap;html=1;" vertex="1" parent="1">
          <mxGeometry x="70" y="1970" width="710" height="50" as="geometry" />
        </mxCell>
        <mxCell id="YYS0tg4hP7vyLNwFndsM-68" style="edgeStyle=orthogonalEdgeStyle;rounded=0;orthogonalLoop=1;jettySize=auto;html=1;exitX=0.75;exitY=0;exitDx=0;exitDy=0;entryX=0.75;entryY=1;entryDx=0;entryDy=0;" edge="1" parent="1" source="YYS0tg4hP7vyLNwFndsM-69" target="YYS0tg4hP7vyLNwFndsM-67">
          <mxGeometry relative="1" as="geometry" />
        </mxCell>
        <mxCell id="YYS0tg4hP7vyLNwFndsM-69" value="外部供应商平台" style="rounded=1;whiteSpace=wrap;html=1;" vertex="1" parent="1">
          <mxGeometry x="70" y="2080" width="710" height="50" as="geometry" />
        </mxCell>
        <mxCell id="YYS0tg4hP7vyLNwFndsM-75" style="edgeStyle=orthogonalEdgeStyle;rounded=0;orthogonalLoop=1;jettySize=auto;html=1;exitX=0.5;exitY=0;exitDx=0;exitDy=0;entryX=0.858;entryY=1.05;entryDx=0;entryDy=0;entryPerimeter=0;" edge="1" parent="1" source="YYS0tg4hP7vyLNwFndsM-71" target="YYS0tg4hP7vyLNwFndsM-62">
          <mxGeometry relative="1" as="geometry" />
        </mxCell>
        <mxCell id="YYS0tg4hP7vyLNwFndsM-83" style="edgeStyle=orthogonalEdgeStyle;rounded=0;orthogonalLoop=1;jettySize=auto;html=1;" edge="1" parent="1" source="YYS0tg4hP7vyLNwFndsM-71">
          <mxGeometry relative="1" as="geometry">
            <mxPoint x="760" y="1890" as="targetPoint" />
          </mxGeometry>
        </mxCell>
        <mxCell id="YYS0tg4hP7vyLNwFndsM-71" value="解析数据" style="rounded=1;whiteSpace=wrap;html=1;" vertex="1" parent="1">
          <mxGeometry x="508" y="1870" width="190" height="40" as="geometry" />
        </mxCell>
        <mxCell id="YYS0tg4hP7vyLNwFndsM-82" style="edgeStyle=orthogonalEdgeStyle;rounded=0;orthogonalLoop=1;jettySize=auto;html=1;entryX=0.86;entryY=0;entryDx=0;entryDy=0;entryPerimeter=0;dashed=1;" edge="1" parent="1" source="YYS0tg4hP7vyLNwFndsM-79" target="YYS0tg4hP7vyLNwFndsM-62">
          <mxGeometry relative="1" as="geometry" />
        </mxCell>
        <mxCell id="YYS0tg4hP7vyLNwFndsM-79" value="异步回调" style="rounded=1;whiteSpace=wrap;html=1;" vertex="1" parent="1">
          <mxGeometry x="543" y="1650" width="120" height="50" as="geometry" />
        </mxCell>
        <mxCell id="YYS0tg4hP7vyLNwFndsM-84" value="db操作" style="shape=cylinder3;whiteSpace=wrap;html=1;boundedLbl=1;backgroundOutline=1;size=15;" vertex="1" parent="1">
          <mxGeometry x="770" y="1850" width="60" height="80" as="geometry" />
        </mxCell>
        <mxCell id="YYS0tg4hP7vyLNwFndsM-85" style="edgeStyle=orthogonalEdgeStyle;rounded=0;orthogonalLoop=1;jettySize=auto;html=1;exitX=0.5;exitY=1;exitDx=0;exitDy=0;" edge="1" parent="1" source="YYS0tg4hP7vyLNwFndsM-86">
          <mxGeometry relative="1" as="geometry">
            <mxPoint x="155" y="2390" as="targetPoint" />
          </mxGeometry>
        </mxCell>
        <mxCell id="YYS0tg4hP7vyLNwFndsM-86" value="定时任务" style="ellipse;whiteSpace=wrap;html=1;aspect=fixed;" vertex="1" parent="1">
          <mxGeometry x="120" y="2230" width="70" height="70" as="geometry" />
        </mxCell>
        <mxCell id="YYS0tg4hP7vyLNwFndsM-104" value="" style="edgeStyle=orthogonalEdgeStyle;rounded=0;orthogonalLoop=1;jettySize=auto;html=1;" edge="1" parent="1" source="YYS0tg4hP7vyLNwFndsM-89" target="YYS0tg4hP7vyLNwFndsM-102">
          <mxGeometry relative="1" as="geometry" />
        </mxCell>
        <mxCell id="YYS0tg4hP7vyLNwFndsM-89" value="检查配置信息" style="rounded=1;whiteSpace=wrap;html=1;" vertex="1" parent="1">
          <mxGeometry x="60" y="2360" width="190" height="40" as="geometry" />
        </mxCell>
        <mxCell id="YYS0tg4hP7vyLNwFndsM-90" style="edgeStyle=orthogonalEdgeStyle;rounded=0;orthogonalLoop=1;jettySize=auto;html=1;entryX=0.134;entryY=0;entryDx=0;entryDy=0;entryPerimeter=0;" edge="1" parent="1" source="YYS0tg4hP7vyLNwFndsM-91" target="YYS0tg4hP7vyLNwFndsM-94">
          <mxGeometry relative="1" as="geometry" />
        </mxCell>
        <mxCell id="YYS0tg4hP7vyLNwFndsM-91" value="组装请求参数" style="rounded=1;whiteSpace=wrap;html=1;" vertex="1" parent="1">
          <mxGeometry x="60" y="2470" width="190" height="40" as="geometry" />
        </mxCell>
        <mxCell id="YYS0tg4hP7vyLNwFndsM-92" style="edgeStyle=orthogonalEdgeStyle;rounded=0;orthogonalLoop=1;jettySize=auto;html=1;entryX=0.141;entryY=0.02;entryDx=0;entryDy=0;entryPerimeter=0;" edge="1" parent="1" source="YYS0tg4hP7vyLNwFndsM-94" target="YYS0tg4hP7vyLNwFndsM-96">
          <mxGeometry relative="1" as="geometry">
            <Array as="points">
              <mxPoint x="160" y="2640" />
              <mxPoint x="160" y="2640" />
            </Array>
          </mxGeometry>
        </mxCell>
        <mxCell id="YYS0tg4hP7vyLNwFndsM-93" style="edgeStyle=orthogonalEdgeStyle;rounded=0;orthogonalLoop=1;jettySize=auto;html=1;exitX=0.75;exitY=0;exitDx=0;exitDy=0;entryX=0.5;entryY=1;entryDx=0;entryDy=0;" edge="1" parent="1" source="YYS0tg4hP7vyLNwFndsM-94" target="YYS0tg4hP7vyLNwFndsM-99">
          <mxGeometry relative="1" as="geometry" />
        </mxCell>
        <mxCell id="YYS0tg4hP7vyLNwFndsM-94" value="sop-out" style="rounded=1;whiteSpace=wrap;html=1;" vertex="1" parent="1">
          <mxGeometry x="60" y="2570" width="710" height="50" as="geometry" />
        </mxCell>
        <mxCell id="YYS0tg4hP7vyLNwFndsM-95" style="edgeStyle=orthogonalEdgeStyle;rounded=0;orthogonalLoop=1;jettySize=auto;html=1;exitX=0.75;exitY=0;exitDx=0;exitDy=0;entryX=0.75;entryY=1;entryDx=0;entryDy=0;" edge="1" parent="1" source="YYS0tg4hP7vyLNwFndsM-96" target="YYS0tg4hP7vyLNwFndsM-94">
          <mxGeometry relative="1" as="geometry" />
        </mxCell>
        <mxCell id="YYS0tg4hP7vyLNwFndsM-96" value="外部供应商平台" style="rounded=1;whiteSpace=wrap;html=1;" vertex="1" parent="1">
          <mxGeometry x="60" y="2680" width="710" height="50" as="geometry" />
        </mxCell>
        <mxCell id="YYS0tg4hP7vyLNwFndsM-108" style="edgeStyle=orthogonalEdgeStyle;rounded=0;orthogonalLoop=1;jettySize=auto;html=1;entryX=1;entryY=0.5;entryDx=0;entryDy=0;entryPerimeter=0;" edge="1" parent="1" source="YYS0tg4hP7vyLNwFndsM-99" target="YYS0tg4hP7vyLNwFndsM-102">
          <mxGeometry relative="1" as="geometry" />
        </mxCell>
        <mxCell id="YYS0tg4hP7vyLNwFndsM-99" value="解析数据" style="rounded=1;whiteSpace=wrap;html=1;" vertex="1" parent="1">
          <mxGeometry x="498" y="2360" width="190" height="40" as="geometry" />
        </mxCell>
        <mxCell id="YYS0tg4hP7vyLNwFndsM-106" style="edgeStyle=orthogonalEdgeStyle;rounded=0;orthogonalLoop=1;jettySize=auto;html=1;entryX=1;entryY=0.5;entryDx=0;entryDy=0;" edge="1" parent="1" source="YYS0tg4hP7vyLNwFndsM-102" target="YYS0tg4hP7vyLNwFndsM-91">
          <mxGeometry relative="1" as="geometry">
            <Array as="points">
              <mxPoint x="370" y="2490" />
            </Array>
          </mxGeometry>
        </mxCell>
        <mxCell id="YYS0tg4hP7vyLNwFndsM-102" value="db操作" style="shape=cylinder3;whiteSpace=wrap;html=1;boundedLbl=1;backgroundOutline=1;size=15;" vertex="1" parent="1">
          <mxGeometry x="340" y="2340" width="60" height="80" as="geometry" />
        </mxCell>
      </root>
    </mxGraphModel>
  </diagram>
</mxfile>
